<?xml version="1.0" standalone="no"?>
<!DOCTYPE svg PUBLIC "-//W3C//DTD SVG 20010904//EN"
 "http://www.w3.org/TR/2001/REC-SVG-20010904/DTD/svg10.dtd">
<svg version="1.0" xmlns="http://www.w3.org/2000/svg"
 width="512.000000pt" height="446.000000pt" viewBox="0 0 512.000000 446.000000"
 preserveAspectRatio="xMidYMid meet">

<g transform="translate(0.000000,446.000000) scale(0.100000,-0.100000)"
fill="#000000" stroke="none">
<path d="M0 2230 l0 -2230 2560 0 2560 0 0 2230 0 2230 -2560 0 -2560 0 0
-2230z m2916 2129 c369 -63 708 -284 923 -603 49 -72 124 -214 151 -286 17
-45 31 -63 41 -53 4 4 20 60 34 122 29 128 30 131 51 131 25 0 26 -23 3 -116
-19 -76 -23 -128 -28 -366 -6 -264 -7 -277 -27 -300 -16 -17 -25 -46 -33 -109
-7 -49 -37 -169 -71 -275 -66 -211 -80 -281 -80 -400 l0 -81 59 -37 c131 -80
183 -243 123 -380 -36 -81 -120 -154 -202 -176 -24 -6 -25 -10 -30 -106 l-5
-99 -143 -3 -142 -3 -10 26 c-16 41 -13 934 3 965 12 24 15 25 141 28 80 2
133 -1 140 -8 18 -18 23 -11 29 37 3 27 22 102 43 168 76 244 85 281 91 345
l5 65 -35 17 c-51 24 -63 57 -70 183 -10 172 -70 368 -160 522 -224 381 -627
613 -1066 613 -561 0 -1050 -380 -1191 -926 -10 -39 -23 -130 -30 -203 -12
-148 -22 -174 -77 -192 l-35 -11 7 -60 c9 -71 18 -108 83 -308 27 -85 53 -179
57 -207 7 -51 17 -65 30 -43 10 16 260 13 274 -4 8 -9 10 -151 9 -507 l-3
-494 -145 0 -145 0 -3 97 -3 96 -44 15 c-98 34 -172 108 -201 203 -41 138 19
290 140 355 l46 24 0 116 c0 129 -9 175 -85 409 -26 81 -52 185 -58 235 -9 67
-18 98 -34 119 -22 28 -23 35 -23 270 0 225 -1 249 -26 364 -20 89 -24 126
-16 134 23 23 39 -1 56 -84 28 -133 36 -158 50 -158 7 0 25 33 40 73 94 242
303 498 534 651 314 209 671 282 1058 215z m754 -1414 l0 -645 -324 -2 -324
-3 54 -94 c30 -51 53 -95 51 -97 -2 -3 -212 -3 -466 -2 l-461 3 54 95 54 95
-326 5 -327 5 -3 643 -2 642 1010 0 1010 0 0 -645z m-2814 -518 c26 -23 26
-25 49 -292 17 -200 20 -273 11 -282 -17 -19 -87 -30 -124 -21 -40 11 -50 31
-60 123 l-7 70 -65 -3 c-36 -2 -148 -10 -250 -18 -102 -8 -208 -14 -237 -14
l-51 0 -7 42 c-16 94 -6 136 37 159 10 6 138 18 284 29 146 10 267 20 269 22
2 2 0 39 -4 83 -5 44 -6 84 -3 88 8 15 66 36 99 37 19 0 42 -9 59 -23z m3944
-78 c99 -11 107 -14 136 -45 54 -57 69 -179 38 -315 -35 -155 -153 -230 -285
-184 -91 33 -119 93 -119 262 l0 104 -27 -3 c-48 -5 -65 -54 -60 -176 4 -108
2 -115 -44 -126 -40 -9 -87 12 -107 48 -23 43 -23 199 1 279 21 68 73 131 132
159 44 21 129 20 335 -3z m-4000 -736 c69 -22 143 -90 183 -167 26 -51 31 -72
32 -131 0 -59 -4 -77 -28 -118 -31 -52 -92 -102 -137 -112 -46 -10 -79 17
-191 152 -56 68 -105 123 -109 123 -5 0 -13 -13 -18 -29 -11 -32 -4 -80 21
-127 18 -35 103 -124 118 -124 18 0 8 -30 -20 -62 -55 -61 -138 -33 -217 74
-80 110 -109 242 -70 331 66 152 274 242 436 190z m3502 -83 c21 -6 88 -48
150 -93 62 -45 143 -104 181 -130 75 -54 75 -53 14 -129 -34 -43 -76 -63 -109
-52 -12 4 -88 53 -167 110 -79 57 -153 104 -165 104 -45 -1 -106 -59 -106
-102 0 -10 68 -66 175 -144 96 -70 175 -130 175 -134 0 -13 -58 -87 -85 -108
-49 -39 -71 -30 -240 91 -233 166 -230 163 -229 230 2 76 46 166 119 245 98
106 185 140 287 112z m-2825 -320 c59 -34 83 -63 83 -102 0 -37 -462 -615
-488 -610 -9 2 -41 19 -69 38 -54 35 -70 64 -59 107 6 23 462 597 474 597 4 0
30 -14 59 -30z m2176 -201 c59 -46 102 -285 94 -524 -6 -177 -24 -251 -73
-300 -60 -61 -150 -70 -200 -20 l-23 23 34 78 c44 100 44 110 1 118 -19 4 -63
27 -98 53 -71 52 -318 297 -318 316 0 42 83 97 147 97 36 1 46 -8 180 -147 78
-81 145 -145 147 -142 7 6 -21 159 -51 281 -30 124 -29 127 52 164 61 29 75
30 108 3z m-762 -68 c20 -21 29 -39 29 -63 0 -53 -9 -59 -96 -62 -116 -4 -165
-37 -152 -103 3 -16 13 -18 88 -16 47 2 95 5 107 8 28 6 53 -36 53 -89 0 -48
-29 -65 -118 -73 -39 -3 -76 -9 -82 -13 -9 -6 -7 -47 9 -172 28 -217 29 -205
-16 -217 -66 -19 -129 -14 -158 12 -25 21 -27 33 -61 313 -40 324 -39 345 18
410 58 65 132 91 266 93 80 1 85 0 113 -28z m-880 -170 c144 -54 226 -203 171
-311 -29 -59 -50 -63 -229 -46 -204 21 -202 21 -196 -4 15 -58 129 -104 246
-98 68 3 72 2 86 -23 8 -15 11 -36 7 -52 -19 -76 -116 -97 -269 -58 -129 33
-202 82 -245 165 -37 71 -38 195 -3 274 32 71 112 144 183 165 68 21 174 16
249 -12z"/>
<path d="M2073 3532 l-363 -2 0 -585 0 -585 950 0 950 0 0 585 0 585 -492 1
c-271 0 -536 1 -588 2 -52 1 -258 1 -457 -1z"/>
<path d="M2346 2241 c-20 -32 -36 -64 -36 -70 0 -8 100 -11 355 -11 217 0 355
4 355 9 0 6 -16 37 -35 70 l-36 61 -284 0 -284 0 -35 -59z"/>
<path d="M4715 2106 c-5 -37 -3 -63 7 -82 17 -37 56 -43 82 -15 20 22 33 108
19 127 -4 6 -29 14 -55 18 l-46 7 -7 -55z"/>
<path d="M697 1453 c-10 -2 -17 -9 -15 -13 7 -21 122 -150 133 -150 7 0 18 14
25 31 30 71 -62 155 -143 132z"/>
<path d="M1833 636 c-29 -13 -60 -52 -51 -62 6 -6 210 -26 214 -21 3 2 0 16
-5 30 -20 52 -100 79 -158 53z"/>
</g>
</svg>
